<svg xmlns="http://www.w3.org/2000/svg" xmlns:xlink="http://www.w3.org/1999/xlink" width="33" height="33" viewBox="0 0 33 33">
  <defs>
    <clipPath id="clip-path">
      <path id="Path_25065" data-name="Path 25065" d="M253-587h15a9,9,0,0,1,9,9v15a9,9,0,0,1-9,9H253a9,9,0,0,1-9-9v-15A9,9,0,0,1,253-587Z" fill="none" clip-rule="evenodd"/>
    </clipPath>
    <clipPath id="clip-path-2">
      <path id="Path_25064" data-name="Path 25064" d="M0,0H375V-792H0Z" fill="none"/>
    </clipPath>
    <clipPath id="clip-path-3">
      <path id="Path_25071" data-name="Path 25071" d="M268.566-572H253.434A1.467,1.467,0,0,0,252-570.5a1.467,1.467,0,0,0,1.434,1.5h15.131A1.467,1.467,0,0,0,270-570.5,1.467,1.467,0,0,0,268.566-572Z" fill="none"/>
    </clipPath>
  </defs>
  <g id="Group_22871" data-name="Group 22871" transform="translate(-10545 -2314)">
    <g id="Group_20783" data-name="Group 20783" transform="translate(10301 2901)" clip-path="url(#clip-path)">
      <g id="Group_20782" data-name="Group 20782" clip-path="url(#clip-path-2)">
        <path id="Path_25063" data-name="Path 25063" d="M239-592h43v43H239Z" fill="#b0eafd"/>
      </g>
    </g>
    <g id="Group_20787" data-name="Group 20787" transform="translate(10301 2901)" clip-path="url(#clip-path-3)">
      <g id="Group_20786" data-name="Group 20786" clip-path="url(#clip-path-2)">
        <path id="Path_25069" data-name="Path 25069" d="M247-577h28v13H247Z" fill="#48b6da"/>
      </g>
    </g>
  </g>
</svg>
