<svg xmlns="http://www.w3.org/2000/svg" xmlns:xlink="http://www.w3.org/1999/xlink" width="22.747" height="22.976" viewBox="0 0 22.747 22.976">
  <defs>
    <clipPath id="clip-path">
      <path id="Path_27469" data-name="Path 27469" d="M348.634-29.636A1.658,1.658,0,0,1,347-31.317,1.659,1.659,0,0,1,348.634-33a1.659,1.659,0,0,1,1.632,1.683A1.658,1.658,0,0,1,348.634-29.636Z" transform="translate(-347 33)" fill="none"/>
    </clipPath>
    <clipPath id="clip-path-2">
      <path id="Path_27468" data-name="Path 27468" d="M0,96.034H408.247V-792H0Z" transform="translate(0 792)" fill="none"/>
    </clipPath>
  </defs>
  <g id="Group_22868" data-name="Group 22868" transform="translate(16.21 12.112)" clip-path="url(#clip-path)">
    <g id="Group_22867" data-name="Group 22867" transform="translate(-377.765 -851.033)" clip-path="url(#clip-path-2)">
      <path id="Path_27467" data-name="Path 27467" d="M342-38h14.153v14.576H342Z" transform="translate(30.322 883.426)" fill="#949494"/>
    </g>
  </g>
  <g id="Group_22869" data-name="Group 22869" transform="translate(0.5 5.703)">
    <path id="Path_25033" data-name="Path 25033" d="M19.029,0H2.718A2.871,2.871,0,0,0,0,2.705v11.57a2.5,2.5,0,0,0,2.51,2.5H19.237a2.5,2.5,0,0,0,2.51-2.5V2.622A2.8,2.8,0,0,0,19.029,0Z" transform="translate(0 0)" fill="none" stroke="#949494" stroke-linecap="round" stroke-linejoin="round" stroke-width="1"/>
  </g>
  <path id="Path_27470" data-name="Path 27470" d="M16.8,3.77V1.963c0-1.8-.378-2.32-2.548-1.731-1.594.433-10.923,3.1-10.923,3.1C.46,4.442.022,5.391.022,7.553L0,8.88" transform="translate(0.5 0.484)" fill="none" stroke="#949494" stroke-linejoin="round" stroke-width="1"/>
</svg>
